<svg width="280" height="241" xmlns="http://www.w3.org/2000/svg" xmlns:xlink="http://www.w3.org/1999/xlink"><defs><filter id="b"><feColorMatrix in="SourceGraphic" values="0 0 0 0 0.345098 0 0 0 0 0.572549 0 0 0 0 0.937255 0 0 0 1.000000 0"/></filter><path id="a" d="M0 0h280v241H0z"/></defs><g fill="none" fill-rule="evenodd" opacity=".3"><mask id="c" fill="#fff"><use xlink:href="#a"/></mask><g filter="url(#b)"><g mask="url(#c)"><g transform="translate(-267 -119)" fill="#000"><rect x="340" y="255" width="3" height="3" rx="1.5"/><rect x="340" y="136" width="3" height="3" rx="1.5"/><rect x="340" y="340" width="3" height="3" rx="1.5"/><rect x="340" y="204" width="3" height="3" rx="1.5"/><rect x="340" y="306" width="3" height="3" rx="1.5"/><rect x="340" y="170" width="3" height="3" rx="1.5"/><rect x="340" y="238" width="3" height="3" rx="1.5"/><rect x="340" y="289" width="3" height="3" rx="1.5"/><rect x="340" y="153" width="3" height="3" rx="1.5"/><rect x="340" y="357" width="3" height="3" rx="1.5"/><rect x="340" y="221" width="3" height="3" rx="1.5"/><rect x="340" y="323" width="3" height="3" rx="1.5"/><rect x="340" y="187" width="3" height="3" rx="1.5"/><rect x="340" y="119" width="3" height="3" rx="1.5"/><rect x="340" y="272" width="3" height="3" rx="1.5"/><rect x="510" y="272" width="3" height="3" rx="1.5"/><rect x="510" y="136" width="3" height="3" rx="1.5"/><rect x="510" y="340" width="3" height="3" rx="1.5"/><rect x="510" y="204" width="3" height="3" rx="1.5"/><rect x="510" y="306" width="3" height="3" rx="1.5"/><rect x="510" y="170" width="3" height="3" rx="1.5"/><rect x="510" y="238" width="3" height="3" rx="1.5"/><rect x="510" y="289" width="3" height="3" rx="1.5"/><rect x="510" y="153" width="3" height="3" rx="1.5"/><rect x="510" y="357" width="3" height="3" rx="1.5"/><rect x="510" y="221" width="3" height="3" rx="1.5"/><rect x="510" y="323" width="3" height="3" rx="1.5"/><rect x="510" y="187" width="3" height="3" rx="1.5"/><rect x="510" y="119" width="3" height="3" rx="1.5"/><rect x="510" y="255" width="3" height="3" rx="1.5"/><rect x="425" y="272" width="3" height="3" rx="1.5"/><rect x="425" y="136" width="3" height="3" rx="1.5"/><rect x="425" y="340" width="3" height="3" rx="1.5"/><rect x="425" y="204" width="3" height="3" rx="1.5"/><rect x="425" y="306" width="3" height="3" rx="1.5"/><rect x="425" y="170" width="3" height="3" rx="1.5"/><rect x="425" y="238" width="3" height="3" rx="1.5"/><rect x="425" y="289" width="3" height="3" rx="1.5"/><rect x="425" y="153" width="3" height="3" rx="1.5"/><rect x="425" y="357" width="3" height="3" rx="1.5"/><rect x="425" y="221" width="3" height="3" rx="1.5"/><rect x="425" y="323" width="3" height="3" rx="1.5"/><rect x="425" y="187" width="3" height="3" rx="1.5"/><rect x="425" y="119" width="3" height="3" rx="1.5"/><rect x="425" y="255" width="3" height="3" rx="1.5"/><rect x="357" y="272" width="3" height="3" rx="1.5"/><rect x="357" y="136" width="3" height="3" rx="1.5"/><rect x="357" y="340" width="3" height="3" rx="1.5"/><rect x="357" y="204" width="3" height="3" rx="1.5"/><rect x="357" y="306" width="3" height="3" rx="1.5"/><rect x="357" y="170" width="3" height="3" rx="1.5"/><rect x="357" y="238" width="3" height="3" rx="1.5"/><rect x="357" y="289" width="3" height="3" rx="1.5"/><rect x="357" y="153" width="3" height="3" rx="1.5"/><rect x="357" y="357" width="3" height="3" rx="1.5"/><rect x="357" y="221" width="3" height="3" rx="1.5"/><rect x="357" y="323" width="3" height="3" rx="1.5"/><rect x="357" y="187" width="3" height="3" rx="1.5"/><rect x="357" y="119" width="3" height="3" rx="1.5"/><rect x="357" y="255" width="3" height="3" rx="1.5"/><rect x="527" y="255" width="3" height="3" rx="1.5"/><rect x="527" y="136" width="3" height="3" rx="1.5"/><rect x="527" y="340" width="3" height="3" rx="1.5"/><rect x="527" y="204" width="3" height="3" rx="1.5"/><rect x="527" y="306" width="3" height="3" rx="1.5"/><rect x="527" y="170" width="3" height="3" rx="1.5"/><rect x="527" y="238" width="3" height="3" rx="1.5"/><rect x="527" y="289" width="3" height="3" rx="1.5"/><rect x="527" y="153" width="3" height="3" rx="1.5"/><rect x="527" y="357" width="3" height="3" rx="1.5"/><rect x="527" y="221" width="3" height="3" rx="1.5"/><rect x="527" y="323" width="3" height="3" rx="1.5"/><rect x="527" y="187" width="3" height="3" rx="1.5"/><rect x="527" y="119" width="3" height="3" rx="1.5"/><rect x="527" y="272" width="3" height="3" rx="1.5"/><rect x="442" y="272" width="3" height="3" rx="1.5"/><rect x="442" y="136" width="3" height="3" rx="1.5"/><rect x="442" y="340" width="3" height="3" rx="1.5"/><rect x="442" y="204" width="3" height="3" rx="1.5"/><rect x="442" y="306" width="3" height="3" rx="1.5"/><rect x="442" y="170" width="3" height="3" rx="1.5"/><rect x="442" y="238" width="3" height="3" rx="1.5"/><rect x="442" y="289" width="3" height="3" rx="1.5"/><rect x="442" y="153" width="3" height="3" rx="1.5"/><rect x="442" y="357" width="3" height="3" rx="1.5"/><rect x="442" y="221" width="3" height="3" rx="1.5"/><rect x="442" y="323" width="3" height="3" rx="1.5"/><rect x="442" y="187" width="3" height="3" rx="1.5"/><rect x="442" y="119" width="3" height="3" rx="1.5"/><rect x="442" y="255" width="3" height="3" rx="1.5"/><rect x="272" y="255" width="3" height="3" rx="1.5"/><rect x="272" y="136" width="3" height="3" rx="1.5"/><rect x="272" y="340" width="3" height="3" rx="1.5"/><rect x="272" y="204" width="3" height="3" rx="1.5"/><rect x="272" y="306" width="3" height="3" rx="1.5"/><rect x="272" y="170" width="3" height="3" rx="1.5"/><rect x="272" y="238" width="3" height="3" rx="1.5"/><rect x="272" y="289" width="3" height="3" rx="1.5"/><rect x="272" y="153" width="3" height="3" rx="1.5"/><rect x="272" y="357" width="3" height="3" rx="1.5"/><rect x="272" y="221" width="3" height="3" rx="1.5"/><rect x="272" y="323" width="3" height="3" rx="1.5"/><rect x="272" y="187" width="3" height="3" rx="1.5"/><rect x="272" y="119" width="3" height="3" rx="1.5"/><rect x="272" y="272" width="3" height="3" rx="1.5"/><rect x="374" y="255" width="3" height="3" rx="1.5"/><rect x="374" y="136" width="3" height="3" rx="1.5"/><rect x="374" y="340" width="3" height="3" rx="1.5"/><rect x="374" y="204" width="3" height="3" rx="1.5"/><rect x="374" y="306" width="3" height="3" rx="1.5"/><rect x="374" y="170" width="3" height="3" rx="1.5"/><rect x="374" y="238" width="3" height="3" rx="1.5"/><rect x="374" y="289" width="3" height="3" rx="1.5"/><rect x="374" y="153" width="3" height="3" rx="1.5"/><rect x="374" y="357" width="3" height="3" rx="1.5"/><rect x="374" y="221" width="3" height="3" rx="1.5"/><rect x="374" y="323" width="3" height="3" rx="1.5"/><rect x="374" y="187" width="3" height="3" rx="1.5"/><rect x="374" y="119" width="3" height="3" rx="1.5"/><rect x="374" y="272" width="3" height="3" rx="1.5"/><rect x="544" y="272" width="3" height="3" rx="1.5"/><rect x="544" y="136" width="3" height="3" rx="1.5"/><rect x="544" y="340" width="3" height="3" rx="1.5"/><rect x="544" y="204" width="3" height="3" rx="1.5"/><rect x="544" y="306" width="3" height="3" rx="1.5"/><rect x="544" y="170" width="3" height="3" rx="1.5"/><rect x="544" y="238" width="3" height="3" rx="1.5"/><rect x="544" y="289" width="3" height="3" rx="1.5"/><rect x="544" y="153" width="3" height="3" rx="1.5"/><rect x="544" y="357" width="3" height="3" rx="1.5"/><rect x="544" y="221" width="3" height="3" rx="1.5"/><rect x="544" y="323" width="3" height="3" rx="1.5"/><rect x="544" y="187" width="3" height="3" rx="1.5"/><rect x="544" y="119" width="3" height="3" rx="1.5"/><rect x="544" y="255" width="3" height="3" rx="1.5"/><rect x="459" y="272" width="3" height="3" rx="1.5"/><rect x="459" y="136" width="3" height="3" rx="1.5"/><rect x="459" y="340" width="3" height="3" rx="1.5"/><rect x="459" y="204" width="3" height="3" rx="1.5"/><rect x="459" y="306" width="3" height="3" rx="1.5"/><rect x="459" y="170" width="3" height="3" rx="1.5"/><rect x="459" y="238" width="3" height="3" rx="1.5"/><rect x="459" y="289" width="3" height="3" rx="1.5"/><rect x="459" y="153" width="3" height="3" rx="1.5"/><rect x="459" y="357" width="3" height="3" rx="1.5"/><rect x="459" y="221" width="3" height="3" rx="1.5"/><rect x="459" y="323" width="3" height="3" rx="1.5"/><rect x="459" y="187" width="3" height="3" rx="1.5"/><rect x="459" y="119" width="3" height="3" rx="1.5"/><rect x="459" y="255" width="3" height="3" rx="1.5"/><rect x="289" y="255" width="3" height="3" rx="1.5"/><rect x="289" y="136" width="3" height="3" rx="1.5"/><rect x="289" y="340" width="3" height="3" rx="1.5"/><rect x="289" y="204" width="3" height="3" rx="1.5"/><rect x="289" y="306" width="3" height="3" rx="1.5"/><rect x="289" y="170" width="3" height="3" rx="1.5"/><rect x="289" y="238" width="3" height="3" rx="1.5"/><rect x="289" y="289" width="3" height="3" rx="1.5"/><rect x="289" y="153" width="3" height="3" rx="1.5"/><rect x="289" y="357" width="3" height="3" rx="1.5"/><rect x="289" y="221" width="3" height="3" rx="1.5"/><rect x="289" y="323" width="3" height="3" rx="1.5"/><rect x="289" y="187" width="3" height="3" rx="1.5"/><rect x="289" y="119" width="3" height="3" rx="1.5"/><rect x="289" y="272" width="3" height="3" rx="1.5"/><rect x="391" y="272" width="3" height="3" rx="1.5"/><rect x="391" y="136" width="3" height="3" rx="1.5"/><rect x="391" y="340" width="3" height="3" rx="1.5"/><rect x="391" y="204" width="3" height="3" rx="1.5"/><rect x="391" y="306" width="3" height="3" rx="1.5"/><rect x="391" y="170" width="3" height="3" rx="1.5"/><rect x="391" y="238" width="3" height="3" rx="1.5"/><rect x="391" y="289" width="3" height="3" rx="1.5"/><rect x="391" y="153" width="3" height="3" rx="1.5"/><rect x="391" y="357" width="3" height="3" rx="1.5"/><rect x="391" y="221" width="3" height="3" rx="1.5"/><rect x="391" y="323" width="3" height="3" rx="1.5"/><rect x="391" y="187" width="3" height="3" rx="1.5"/><rect x="391" y="119" width="3" height="3" rx="1.5"/><rect x="391" y="255" width="3" height="3" rx="1.5"/><rect x="476" y="255" width="3" height="3" rx="1.5"/><rect x="476" y="136" width="3" height="3" rx="1.5"/><rect x="476" y="340" width="3" height="3" rx="1.5"/><rect x="476" y="204" width="3" height="3" rx="1.5"/><rect x="476" y="306" width="3" height="3" rx="1.5"/><rect x="476" y="170" width="3" height="3" rx="1.5"/><rect x="476" y="238" width="3" height="3" rx="1.5"/><rect x="476" y="289" width="3" height="3" rx="1.5"/><rect x="476" y="153" width="3" height="3" rx="1.5"/><rect x="476" y="357" width="3" height="3" rx="1.5"/><rect x="476" y="221" width="3" height="3" rx="1.5"/><rect x="476" y="323" width="3" height="3" rx="1.5"/><rect x="476" y="187" width="3" height="3" rx="1.5"/><rect x="476" y="119" width="3" height="3" rx="1.5"/><rect x="476" y="272" width="3" height="3" rx="1.5"/><rect x="306" y="255" width="3" height="3" rx="1.5"/><rect x="306" y="136" width="3" height="3" rx="1.5"/><rect x="306" y="340" width="3" height="3" rx="1.5"/><rect x="306" y="204" width="3" height="3" rx="1.5"/><rect x="306" y="306" width="3" height="3" rx="1.5"/><rect x="306" y="170" width="3" height="3" rx="1.5"/><rect x="306" y="238" width="3" height="3" rx="1.5"/><rect x="306" y="289" width="3" height="3" rx="1.5"/><rect x="306" y="153" width="3" height="3" rx="1.5"/><rect x="306" y="357" width="3" height="3" rx="1.5"/><rect x="306" y="221" width="3" height="3" rx="1.5"/><rect x="306" y="323" width="3" height="3" rx="1.5"/><rect x="306" y="187" width="3" height="3" rx="1.5"/><rect x="306" y="119" width="3" height="3" rx="1.5"/><rect x="306" y="272" width="3" height="3" rx="1.5"/><rect x="408" y="272" width="3" height="3" rx="1.5"/><rect x="408" y="136" width="3" height="3" rx="1.5"/><rect x="408" y="340" width="3" height="3" rx="1.5"/><rect x="408" y="204" width="3" height="3" rx="1.5"/><rect x="408" y="306" width="3" height="3" rx="1.5"/><rect x="408" y="170" width="3" height="3" rx="1.5"/><rect x="408" y="238" width="3" height="3" rx="1.5"/><rect x="408" y="289" width="3" height="3" rx="1.5"/><rect x="408" y="153" width="3" height="3" rx="1.5"/><rect x="408" y="357" width="3" height="3" rx="1.5"/><rect x="408" y="221" width="3" height="3" rx="1.5"/><rect x="408" y="323" width="3" height="3" rx="1.5"/><rect x="408" y="187" width="3" height="3" rx="1.5"/><rect x="408" y="119" width="3" height="3" rx="1.5"/><rect x="408" y="255" width="3" height="3" rx="1.5"/><rect x="493" y="272" width="3" height="3" rx="1.5"/><rect x="493" y="136" width="3" height="3" rx="1.5"/><rect x="493" y="340" width="3" height="3" rx="1.5"/><rect x="493" y="204" width="3" height="3" rx="1.5"/><rect x="493" y="306" width="3" height="3" rx="1.5"/><rect x="493" y="170" width="3" height="3" rx="1.5"/><rect x="493" y="238" width="3" height="3" rx="1.5"/><rect x="493" y="289" width="3" height="3" rx="1.5"/><rect x="493" y="153" width="3" height="3" rx="1.5"/><rect x="493" y="357" width="3" height="3" rx="1.5"/><rect x="493" y="221" width="3" height="3" rx="1.5"/><rect x="493" y="323" width="3" height="3" rx="1.5"/><rect x="493" y="187" width="3" height="3" rx="1.5"/><rect x="493" y="119" width="3" height="3" rx="1.5"/><rect x="493" y="255" width="3" height="3" rx="1.5"/><rect x="323" y="255" width="3" height="3" rx="1.5"/><rect x="323" y="136" width="3" height="3" rx="1.5"/><rect x="323" y="340" width="3" height="3" rx="1.5"/><rect x="323" y="204" width="3" height="3" rx="1.5"/><rect x="323" y="306" width="3" height="3" rx="1.5"/><rect x="323" y="170" width="3" height="3" rx="1.5"/><rect x="323" y="238" width="3" height="3" rx="1.5"/><rect x="323" y="289" width="3" height="3" rx="1.5"/><rect x="323" y="153" width="3" height="3" rx="1.5"/><rect x="323" y="357" width="3" height="3" rx="1.5"/><rect x="323" y="221" width="3" height="3" rx="1.5"/><rect x="323" y="323" width="3" height="3" rx="1.5"/><rect x="323" y="187" width="3" height="3" rx="1.5"/><rect x="323" y="119" width="3" height="3" rx="1.5"/><rect x="323" y="272" width="3" height="3" rx="1.5"/></g></g></g></g></svg>