<?xml version="1.0" encoding="UTF-8"?>
<svg width="16px" height="16px" viewBox="0 0 16 16" version="1.1" xmlns="http://www.w3.org/2000/svg" xmlns:xlink="http://www.w3.org/1999/xlink">
    <title>Shape</title>
    <g id="Page-4" stroke="none" stroke-width="1" fill="none" fill-rule="evenodd">
        <g id="v6" transform="translate(-1243.000000, -7726.000000)" fill="#333333" fill-rule="nonzero">
            <g id="footer" transform="translate(0.000000, 7330.000000)">
                <g id="language-black-18dp" transform="translate(1242.000000, 395.000000)">
                    <path d="M8.9925,1.5 C4.8525,1.5 1.5,4.86 1.5,9 C1.5,13.14 4.8525,16.5 8.9925,16.5 C13.14,16.5 16.5,13.14 16.5,9 C16.5,4.86 13.14,1.5 8.9925,1.5 Z M14.19,6 L11.9775,6 C11.7375,5.0625 11.3925,4.1625 10.9425,3.33 C12.3225,3.8025 13.47,4.7625 14.19,6 Z M9,3.03 C9.6225,3.93 10.11,4.9275 10.4325,6 L7.5675,6 C7.89,4.9275 8.3775,3.93 9,3.03 Z M3.195,10.5 C3.075,10.02 3,9.5175 3,9 C3,8.4825 3.075,7.98 3.195,7.5 L5.73,7.5 C5.67,7.995 5.625,8.49 5.625,9 C5.625,9.51 5.67,10.005 5.73,10.5 L3.195,10.5 Z M3.81,12 L6.0225,12 C6.2625,12.9375 6.6075,13.8375 7.0575,14.67 C5.6775,14.1975 4.53,13.245 3.81,12 L3.81,12 Z M6.0225,6 L3.81,6 C4.53,4.755 5.6775,3.8025 7.0575,3.33 C6.6075,4.1625 6.2625,5.0625 6.0225,6 L6.0225,6 Z M9,14.97 C8.3775,14.07 7.89,13.0725 7.5675,12 L10.4325,12 C10.11,13.0725 9.6225,14.07 9,14.97 Z M10.755,10.5 L7.245,10.5 C7.1775,10.005 7.125,9.51 7.125,9 C7.125,8.49 7.1775,7.9875 7.245,7.5 L10.755,7.5 C10.8225,7.9875 10.875,8.49 10.875,9 C10.875,9.51 10.8225,10.005 10.755,10.5 Z M10.9425,14.67 C11.3925,13.8375 11.7375,12.9375 11.9775,12 L14.19,12 C13.47,13.2375 12.3225,14.1975 10.9425,14.67 L10.9425,14.67 Z M12.27,10.5 C12.33,10.005 12.375,9.51 12.375,9 C12.375,8.49 12.33,7.995 12.27,7.5 L14.805,7.5 C14.925,7.98 15,8.4825 15,9 C15,9.5175 14.925,10.02 14.805,10.5 L12.27,10.5 Z" id="Shape"></path>
                </g>
            </g>
        </g>
    </g>
</svg>