<svg width="115" height="31" xmlns="http://www.w3.org/2000/svg"><path d="m10.61 23.7.21 3.2c.05.21.17.42.34.5a.6.6 0 0 0 .6-.04c1.06-.67 3-1.93 5-3.61.3-.26.67-.42 1.1-.42 1.1-.05 2.28-.13 3.51-.26a2.07 2.07 0 0 0 1.87-1.85c.04-.33.04-.63.08-.97a2.22 2.22 0 0 1 2.25-2.06h1.73c.85 0 1.66.34 2.25.97.55.63.85 1.47.76 2.31l-.25 2.4a6.9 6.9 0 0 1-6.02 5.98c-6.31.75-11.18.75-17.5 0a6.82 6.82 0 0 1-5.97-5.98 66.25 66.25 0 0 1 0-17.37A6.77 6.77 0 0 1 6.55.57a67.67 67.67 0 0 1 17.5 0 6.7 6.7 0 0 1 5.97 5.97l.25 2.4c.08.84-.17 1.68-.76 2.31-.6.6-1.4.97-2.25.97h-1.74a2.22 2.22 0 0 1-2.24-2.06c-.04-.34-.04-.63-.09-.97a2.07 2.07 0 0 0-1.86-1.85 60.54 60.54 0 0 0-12.07 0c-.98.08-1.78.88-1.87 1.85a56.3 56.3 0 0 0 0 11.95c.13 1 .9 1.8 1.9 1.9.26.03.48.07.73.07.34 0 .6.26.6.6ZM45.44 8.73c3.09 0 5.38 1.64 5.89 4.71h-3.14a2.62 2.62 0 0 0-2.63-1.8c-.89 0-1.6.33-2.2 1.04-.6.68-.89 1.56-.89 2.61 0 2.1 1.31 3.62 3.14 3.62 1.27 0 2.28-.76 2.58-1.77h3.18c-.64 3.03-2.88 4.71-5.93 4.71a6.09 6.09 0 0 1-4.58-1.8 6.55 6.55 0 0 1-1.78-4.76c0-1.9.6-3.45 1.78-4.71a6.12 6.12 0 0 1 4.58-1.85Zm8.51-5.26h3.22v6.86c.72-1.1 1.78-1.6 3.22-1.6 2.67 0 4.11 1.8 4.11 4.71v8.2h-3.26v-7.49c0-1.5-.64-2.27-1.82-2.27-1.32 0-2.25 1.1-2.25 3.07v6.7h-3.22V3.46Zm18.52 5.26c3.09 0 5.04 1.6 5.08 4.58v8.3h-2.8l-.2-1.57c-.81 1.22-2.04 1.81-3.65 1.81-2.29 0-3.86-1.39-3.86-3.61 0-2.32 1.44-3.41 3.94-3.8l3.26-.58v-.46c0-1.3-.59-1.94-1.77-1.94-1.1 0-1.91.68-1.91 1.69h-3.14c.17-2.61 2.12-4.42 5.05-4.42Zm1.77 7.7v-.38l-2.54.5c-.97.26-1.44.72-1.44 1.43 0 .8.55 1.26 1.49 1.26.88 0 1.56-.37 2.03-1.13.3-.5.46-1.05.46-1.68Zm12.93-7.7c2.67 0 4.1 1.77 4.06 4.71v8.2h-3.26v-7.49c0-1.5-.63-2.27-1.82-2.27-1.31 0-2.25 1.1-2.25 3.07v6.7h-3.22V9.01h2.8l.25 1.64c.68-1.3 1.83-1.93 3.44-1.93Zm8.09-2.78V6h3.26l-.04 3.08h2.92V12h-2.92l-.04 5.09c0 1.3.42 1.8 1.65 1.8.46 0 .89-.03 1.31-.16v2.82c-.47.2-1.14.3-2.03.3-2.84 0-4.24-1.23-4.2-4l.05-5.9h-2.08V9.03h2.08l.04-3.07Zm16.22 3.03H115l-6.52 17.96h-3.4l1.91-5.47-4.49-12.49h3.52l2.46 7.74.25 1.1.25-1.1 2.5-7.74Z" fill="#3079ED" fill-rule="nonzero"/></svg>